<?xml version="1.0" encoding="UTF-8"?>
<svg id="Capa_1" xmlns="http://www.w3.org/2000/svg" version="1.1" viewBox="0 0 500 500">
  <!-- Generator: Adobe Illustrator 29.4.0, SVG Export Plug-In . SVG Version: 2.1.0 Build 152)  -->
  <path d="M422.69,262.39c-17.51-8.3-35.01-14.73-53.42-21.19,2.76-7.37,5.52-13.82,5.52-13.82,0,0,18.41-17.5,18.41-41.45s-1.83-35.92-1.83-35.92c0,0,1.83-5.52.92-9.2-.92-3.69,4.59-2.76,4.59-1.85s3.7-3.69,3.7-8.3v-10.13s4.59-7.37,4.59-13.81,5.54-8.3,2.76-16.58c-2.76-8.28,9.21.92,16.58.92s16.58-6.44,16.58-6.44l.93,7.37-8.3,11.97s8.3,7.37,17.5-8.3c9.21-15.65,20.27-33.15,11.97-54.33,2.76-2.76,11.97-18.43-16.58-23.95-32.23-6.45-45.12-7.37-58.03.92-13.81,7.37-18.41,3.69-20.26,5.53-2.76,1.83-8.28,6.44-8.28,6.44,0,0-4.61,2.76-7.37,7.37-2.76,4.61-11.06,3.69-18.43,12.89-7.37,9.21-19.34,18.43-19.34,18.43,0,0-34.08,7.37-46.05,30.4-11.97,23.02-16.58,32.23-17.5,34.08-.93.92-14.74,44.21-14.74,50.64,0,3.69-2.76,18.43-4.61,31.32h-20.26c5.52-10.13,10.13-21.17,13.81-33.15,6.45-22.1,8.3-43.29-6.44-63.55-14.73-20.27-28.55-39.61-43.29-59.87-5.54-7.37-11.06-13.82-18.43-19.34-14.74-11.97-32.23-7.37-40.52,9.21-2.77,5.52-7.38,10.13-11.97,14.74-2.76,2.76-5.54,4.61-10.14,9.21,4.61,0,6.45,0,7.38-.93,14.74-4.59,23.95.93,23.95,16.58,0,11.97-4.61,23.03-7.38,35.01-1.83,8.28-5.52,15.65-7.35,23.95-4.61,25.78-1.86,50.65,7.35,74.59.93,2.76,1.85,5.52,2.77,8.28-39.02,7.37-84.9,19.45-121.21,36.5l.5,42.47c35.99-17.41,80.3-30.41,116.1-38.44-3.69,2.76-8.3,6.45-11.97,10.13-9.21,8.3-17.5,16.58-26.71,25.79-.93.92-1.84,2.76-2.77,3.68l.93.93c2.76-1.85,5.52-3.69,8.28-5.54,0,1.85.93,1.85,2.77.93,1.83-.93,3.68-1.85,5.52-2.76-2.76,3.68-7.37,6.44-9.21,11.97,4.61,0,6.45-3.69,9.21-5.54,0,1.85-.92,3.69-1.84,4.61-7.37,12.9-13.82,25.79-21.17,38.68-1.85,3.69-2.77,7.37-3.69,11.06v3.68c.92,0,2.76-.92,3.69-.92,1.83-.93,3.68-2.76,5.52-4.61,8.28-10.13,17.5-21.19,25.78-31.32,2.76-3.68,5.54-7.37,8.28-11.06-.92,3.69-2.75,7.38-3.68,11.99-1.84,5.52-2.76,10.13-4.61,15.65,0,.92.93,1.85.93,3.68.92,0,2.76-.92,2.76-.92,2.76-2.76,5.52-5.52,7.37-8.28,11.97-15.66,21.17-32.25,31.32-48.81,1.83-3.69,3.68-4.61,7.37-5.53,3.68,0,13.81-11.05,20.26-23.95.92-.92.92-1.83,1.84-2.76,20.26-1.83,40.52-2.76,60.79-1.83-2.76,11.05-4.61,24.86-5.54,37.75-1.83,26.71,1.85,78.28,1.85,78.28,0,0,11.06-6.44,12.9-33.15,1.83-27.64,4.59,7.37,4.59,7.37,0,0,10.14,70.92,11.97,101.3,1.84,30.4,3.69,39.61,11.97,28.55,0,0,8.3,18.43,14.74-.92,7.37-18.43,6.45-67.24,6.45-67.24,0,0,5.54,23.95,11.05,23.03,4.62-.93,7.38-70.93,0-89.34,0,0,9.21-11.97,7.38-22.1,0,0,27.63-29.47,39.6-44.21,33.14,10.13,66.31,23.95,100.39,41.43,5.52,2.77,11.06,5.54,17.51,8.3,11.65,7.49,20.93,15.57,31.86,24.2v-44.23c-24.85-17.75-49.51-33.27-77.91-46.28Z"/>
</svg>