<svg width="373.838379" height="320.723877" viewBox="0 0 373.838 320.724" fill="none" xmlns="http://www.w3.org/2000/svg" xmlns:xlink="http://www.w3.org/1999/xlink">
	<desc>
			Created with Pixso.
	</desc>
	<defs/>
	<path id="&amp;lt;Compound Path&amp;gt;" d="M43.36 192.83C42.16 197.93 40.86 202.93 40.86 208.23C40.86 209.03 41.16 209.83 41.36 210.63C41.56 211.73 42.16 211.93 43.16 211.53C45.26 210.63 46.46 208.83 47.66 207.23C51.59 201.43 54.89 195.27 57.56 188.73C58.56 186.43 59.56 184.23 60.36 181.93L60.36 186.03C60.36 187.73 60.16 189.13 59.76 190.83C59.56 191.43 59.36 192.03 59.16 192.63C58.96 193.23 58.76 193.83 58.36 194.23C58.46 194.23 58.46 194.23 58.46 194.23C57.86 195.13 57.46 196.13 56.86 197.13C53.86 202.63 51.76 208.23 47.46 212.93C45.66 214.73 42.76 216.43 40.26 217.23C36.96 218.23 33.56 216.83 32.06 213.73C31.46 212.33 31.06 210.63 30.66 209.03C30.46 208.63 30.46 208.43 30.26 207.83C29.26 210.43 27.16 213.73 25.56 215.23C24.26 216.43 23.26 217.63 22.06 218.63C17.36 223.03 10.56 223.63 5.46 220.13C3.16 218.63 1.76 216.43 0.86 213.73C-0.34 208.83 0.06 204.33 0.06 204.33C0.46 198.73 1.96 193.43 3.96 188.33C6.46 182.33 9.56 176.83 14.26 172.33C16.46 170.03 18.96 168.23 22.26 167.83C27.36 167.23 31.86 169.83 31.46 175.43C31.06 183.63 27.16 190.13 20.36 194.93C18.56 196.13 16.66 196.53 14.26 196.93C11.36 197.53 10.16 197.93 7.96 198.13L12.36 197.73C12.16 198.73 12.16 200.23 11.96 201.43C11.56 205.13 10.96 209.03 12.16 212.73C12.96 215.43 15.46 216.43 17.96 215.03C20.56 213.53 22.46 211.33 24.26 208.83C25.56 207.43 26.96 204.33 27.96 202.43C28.76 200.23 29.66 198.13 30.46 195.93C31.46 193.83 31.86 191.43 32.66 188.93C32.06 188.93 31.66 189.13 31.26 189.13C29.26 189.33 29.86 189.33 27.96 189.33C26.16 189.33 32.26 187.53 34.96 180.53C38.46 171.13 41.96 161.63 47.66 153.23C49.56 150.53 51.56 148.13 54.46 146.43C57.36 145.03 61.86 145.83 62.06 150.83C62.26 153.43 61.66 155.93 60.76 158.33C57.96 166.33 53.26 173.33 47.26 179.53C46.46 180.53 46.26 182.13 45.66 183.43L43.36 192.83ZM50.16 169.83C50.26 169.73 50.36 169.53 50.46 169.43C51.76 167.33 53.16 165.53 54.36 163.43C56.26 160.43 57.86 157.33 58.66 153.83C58.96 153.43 58.66 152.83 58.66 152.23C56.26 153.43 52.76 160.53 50.16 169.83ZM50.06 170.03C50.13 169.97 50.16 169.9 50.16 169.83C50.09 169.9 50.06 169.97 50.06 170.03ZM25.06 176.63C25.26 175.53 24.46 174.93 23.66 175.33C22.56 175.93 21.36 176.63 20.56 177.63C17.06 182.13 15.46 187.63 13.76 193.23C13.76 193.43 13.96 193.43 13.96 193.63C14.76 193.03 15.86 192.83 16.66 192.13C20.16 189.53 22.56 186.03 24.06 181.93C24.66 180.33 24.86 178.43 25.06 176.63Z" fill="#000000" fill-opacity="1.000000" fill-rule="evenodd"/>
	<path id="&amp;lt;Path&amp;gt;" d="M113.36 166.03C117.26 163.33 120.66 159.83 123.76 155.73C126.66 151.83 128.46 147.93 129.36 144.23C129.96 140.53 129.96 137.13 128.86 134.03C127.86 130.93 126.26 128.03 123.56 125.63C121.06 123.13 118.06 121.33 114.76 119.63C110.46 117.83 100.76 115.53 95.46 115.13C90.36 114.73 84.96 115.13 80.06 115.73C74.96 116.33 70.26 117.43 65.56 119.03C60.83 120.7 56.49 122.97 52.56 125.83C50.76 127.03 49.16 128.83 47.66 130.93C46.26 132.93 45.26 135.03 44.56 137.33C43.96 139.53 43.96 141.63 44.56 143.63C45.26 145.73 46.66 147.53 48.86 148.93C49.56 146.73 50.96 144.43 53.06 141.83C55.06 139.13 57.56 136.63 60.56 134.23C63.66 131.73 66.96 129.53 70.66 127.43C74.36 125.43 78.26 123.93 82.36 122.73C86.46 121.73 90.56 121.13 94.66 121.13C98.76 121.13 108.36 121.93 112.26 123.53C116.96 125.63 119.86 128.43 120.66 132.33C121.53 136.27 120.53 140.6 117.66 145.33C115.56 148.73 113.16 151.83 110.46 154.73C107.76 157.63 104.86 160.03 101.86 162.33C99.19 164.2 96.53 165.83 93.86 167.23L94.46 165.23C95.46 161.93 96.46 158.63 97.56 155.53C98.56 152.27 99.56 149.2 100.56 146.33C101.66 143.23 102.46 140.53 103.26 137.93C103.46 137.13 103.66 136.03 103.66 135.03C103.66 134.03 103.46 133.23 103.06 132.13C102.66 131.33 101.86 130.53 100.76 130.13C99.76 129.53 98.56 129.33 96.86 129.33C95.66 132.13 94.46 135.43 92.96 138.93C91.56 142.43 90.16 146.33 88.46 150.23C87.06 154.13 85.46 158.03 83.96 161.93C82.56 165.63 81.06 169.13 79.86 172.53C79.06 172.73 78.26 172.93 77.66 173.23C74.53 174.03 71.63 174.43 68.96 174.43C66.56 174.43 64.46 174.03 62.66 173.43C62.46 173.63 62.26 173.83 61.86 174.23L61.66 174.43C62.26 175.43 63.46 176.43 65.36 177.03C67.56 177.93 70.26 178.53 73.56 178.53C74.56 178.53 75.96 178.53 77.86 178.13C74.56 186.73 68.76 202.13 67.96 204.33C66.76 207.23 65.96 209.73 65.16 211.53C64.06 213.83 63.66 215.63 63.86 217.33C64.06 218.73 64.46 220.13 65.36 220.93C66.16 222.03 67.36 222.63 68.76 223.23C70.26 223.63 71.86 224.03 73.76 224.23C74.76 221.43 75.96 217.53 77.66 212.73C79.26 208.23 88.66 182.23 90.76 175.83C94.26 175.23 97.96 174.23 101.66 172.53C105.56 171.13 109.66 168.83 113.36 166.03Z" fill="#000000" fill-opacity="1.000000" fill-rule="nonzero"/>
	<path id="&amp;lt;Compound Path&amp;gt;" d="M372.96 199.83C372.96 199.63 372.76 199.43 372.76 199.23C372.76 200.03 372.36 201.13 372.16 202.13C370.76 207.63 369.06 213.13 365.56 217.73C363.36 220.53 360.66 222.23 356.96 221.63C354.96 221.23 353.46 219.93 352.46 218.13C350.86 215.03 350.46 211.73 350.26 208.23C350.06 201.13 350.66 194.13 351.66 187.13C352.26 182.23 353.06 177.13 353.76 172.13L353.76 171.73C351.66 172.93 349.36 174.03 347.56 175.03C346.56 179.73 345.46 184.63 344.26 189.43C342.66 195.73 340.16 201.93 337.26 207.83C335.06 212.13 332.36 217.53 328.66 220.93C327.46 222.23 326.06 222.63 324.36 223.03C323.96 223.03 323.36 223.23 322.76 223.23L321.56 223.23C313.26 222.63 312.86 204.13 312.86 204.13C312.86 204.13 311.86 211.93 303.06 214.43C299.56 215.43 296.86 214.43 294.86 211.73C293.16 213.63 291.76 215.43 290.16 217.03C285.36 222.03 278.06 220.13 274.96 216.43C273.06 214.23 272.46 211.53 272.46 208.63C272.46 205.23 272.86 201.73 273.56 198.23L284.16 163.73C284.96 160.83 284.56 159.83 281.56 162.13C278.66 164.13 276.96 167.23 275.56 170.33C272.26 177.33 268.96 184.23 266.36 191.43C263.86 198.03 262.46 201.33 261.46 203.93C260.76 206.03 260.16 206.83 259.56 209.03C258.56 212.13 259.76 213.43 259.36 213.63C256.26 215.03 254.06 215.43 250.76 214.43C247.66 213.43 246.06 211.13 246.06 207.83C246.06 205.23 246.46 202.13 247.06 199.43C249.06 190.83 249.96 188.93 251.96 180.33C252.96 175.43 253.86 170.33 254.86 165.23C255.06 164.53 255.06 163.73 254.86 162.93C254.66 161.53 253.86 161.33 252.96 162.33C251.76 163.93 250.56 165.63 249.56 167.43C244.76 176.23 241.36 185.73 238.26 195.13C236.36 200.83 234.76 206.83 234.16 212.93C233.96 214.2 233.96 215.43 234.16 216.63C234.16 217.53 233.96 218.13 233.06 218.53C224.66 223.03 218.96 216.83 218.96 210.33C218.96 206.23 219.96 202.13 220.36 198.03L225.56 172.73C226.36 170.53 226.96 168.03 227.56 165.63C225.36 169.33 222.66 172.33 219.16 174.03C215.86 175.43 215.26 177.53 215.46 180.93C215.66 190.43 214.06 199.43 209.36 207.83C207.26 211.53 204.56 214.63 200.66 216.23C195.36 218.53 188.36 216.63 185.76 209.53C185.76 209.33 185.56 209.33 185.56 209.03C184.66 206.23 182.46 204.13 185.56 192.03C181.66 199.43 177.36 206.63 171.56 212.73C169.36 215.43 166.86 217.93 163.36 218.93C159.06 220.13 149.46 219.33 151.06 203.33L151.06 202.93C151.06 202.73 150.66 202.53 150.46 202.93C147.56 209.33 143.86 218.53 140.36 223.63C137.76 227.33 135.06 230.63 131.16 232.83C126.66 235.53 117.66 234.53 115.36 227.33C114.16 223.63 114.36 219.93 114.76 216.23C114.96 215.43 115.16 214.4 115.36 213.13C115.56 211.73 115.76 210.73 115.76 210.73C115.76 210.73 113.16 218.33 103.46 218.93C93.86 219.33 91.76 206.43 97.76 192.43C103.66 178.53 113.76 168.03 120.46 165.43C127.26 162.73 131.56 164.13 132.36 167.03C132.96 169.33 128.86 170.33 128.86 170.33C128.86 170.33 123.56 171.73 115.76 181.63C107.96 191.43 104.46 203.53 103.86 208.03C103.26 212.73 104.46 214.43 110.66 209.53C116.76 204.53 127.06 182.83 131.36 173.23C135.46 163.53 134.26 162.53 135.86 158.63C137.56 154.73 141.46 158.23 141.46 158.23C149.46 164.33 139.76 180.93 134.46 191.23C132.16 195.73 129.76 201.93 127.86 208.03C127.66 209.33 127.46 210.13 127.26 210.93C126.46 214.03 126.26 217.33 126.06 220.53C126.06 222.63 126.66 224.63 128.66 225.53C130.96 226.53 132.56 225.03 134.06 223.43C137.56 219.73 139.76 215.23 141.66 210.73C144.46 203.53 147.36 196.53 150.06 189.43C151.26 186.53 152.06 183.23 153.06 179.73L146.96 179.93C149.46 178.53 155.76 170.33 156.36 168.23C160.66 155.13 166.06 142.23 174.06 130.73C176.46 127.03 179.16 123.53 183.26 121.33C187.36 119.03 193.56 120.23 193.96 127.03C194.16 130.73 193.26 134.23 192.06 137.53C187.96 148.53 181.66 158.03 173.46 166.63C172.16 167.83 171.96 170.13 171.16 171.93L167.86 184.83C166.26 191.83 164.56 198.83 164.56 206.03C164.56 207.23 164.76 208.43 165.26 209.53C165.46 210.53 166.66 210.93 167.66 210.53C170.36 209.03 172.16 206.83 173.86 204.33C179.56 196.53 183.86 187.93 187.56 178.93C188.56 176.23 189.66 173.83 190.66 171.33C188.56 168.43 187.36 165.43 188.76 161.73C190.26 157.83 193.56 155.93 197.46 155.73C200.06 155.73 201.76 154.93 203.16 152.83C205.16 149.83 208.06 148.13 211.96 148.73C212.56 148.73 213.16 148.93 213.66 149.23C215.26 150.03 215.26 150.43 214.46 151.83C212.96 154.53 211.76 156.93 210.56 159.63C210.36 160.03 210.36 160.63 210.56 161.13C211.56 163.33 212.76 165.43 213.86 167.63C213.86 167.83 214.06 167.83 214.26 168.03C219.76 165.63 223.46 161.53 226.16 156.33C228.56 151.83 230.06 151.23 228.76 145.93C228.36 144.83 229.16 144.23 230.26 143.83C233.26 143.03 236.56 144.03 238.66 146.13C243.36 149.83 239.26 167.63 239.26 167.63C238.86 172.93 238.06 178.13 237.16 183.43C238.26 180.73 239.06 178.13 240.06 175.63C242.96 168.43 246.26 161.33 251.56 155.53C253.42 153.46 255.69 152.03 258.36 151.23C262.46 150.03 265.56 152.03 266.56 155.93C267.76 160.43 267.56 165.23 266.76 169.73C265.56 175.83 264.06 182.03 262.66 188.13C262.46 188.13 262.66 188.33 262.66 188.93C264.46 184.23 266.36 179.93 268.16 175.63C271.06 168.63 274.36 161.93 279.46 156.13C282.16 153.33 285.16 151.03 289.56 151.23C292.56 151.23 294.46 153.33 294.86 155.73C295.46 158.83 295.46 161.93 295.26 164.93C294.46 171.93 292.56 178.53 290.76 185.13C289.06 190.63 287.66 195.93 286.46 201.53C285.86 203.73 285.86 206.23 285.36 208.63L285.36 210.13C285.66 211.33 285.86 212.73 287.26 213.13C288.66 213.83 289.76 212.73 290.56 211.73C291.56 210.53 292.56 209.03 293.16 207.63C291.76 203.53 291.56 198.03 292.76 191.83C295.46 177.93 302.86 166.23 308.56 162.33C314.36 158.43 318.86 158.83 320.06 161.33C321.26 163.73 317.66 164.93 317.66 164.93C317.66 164.93 313.06 167.43 307.76 178.13C302.46 188.73 301.86 200.43 302.26 204.73C302.66 209.03 304.06 210.33 308.76 204.53C313.26 198.63 318.46 176.63 320.46 167.03C322.36 157.43 321.06 156.73 321.76 152.83C322.56 148.93 326.86 151.23 326.86 151.23C335.46 155.13 329.76 172.33 327.06 182.83C324.16 193.53 322.16 213.63 326.66 216.23L326.86 216.23C327.26 216.23 327.66 216.03 328.26 215.63C330.56 213.63 331.56 211.13 332.76 208.43C337.06 199.03 339.96 188.93 342.26 178.73C342.66 177.73 342.66 176.83 342.86 175.83L342.86 175.03C339.36 174.03 337.06 171.73 335.86 168.43C334.66 164.73 335.66 160.03 338.56 158.03C339.76 157.23 341.46 156.53 342.86 156.33C345.26 155.93 347.56 157.83 347.96 160.63C348.36 163.53 348.56 166.43 348.96 169.33C351.66 168.43 353.46 166.83 354.56 164.13C355.36 161.93 355.56 159.43 355.16 156.93C354.96 155.93 355.36 155.13 356.36 154.93C359.06 154.13 361.46 153.73 363.76 155.73C365.16 156.93 365.86 158.83 365.56 160.83C365.16 165.63 364.56 170.13 363.96 174.83C362.96 182.23 361.96 189.63 361.06 196.93C360.86 200.23 360.66 203.33 360.86 206.63C360.86 208.63 361.46 210.73 362.16 212.53C362.96 214.63 364.96 214.83 366.06 212.93C367.26 210.93 368.46 208.63 369.06 206.43C370.76 201.13 372.16 195.73 373.16 190.23C373.16 189.83 373.36 189.43 373.36 188.93C373.86 192.63 374.26 196.33 372.96 199.83ZM177.36 153.73C177.56 153.53 177.76 153.13 177.96 152.83C179.56 150.23 181.66 147.53 183.26 144.63C185.76 140.33 188.16 136.03 189.16 131.33C189.46 130.73 189.16 129.93 189.16 129.13C185.96 130.53 180.96 140.53 177.36 153.73ZM197.86 161.33C196.16 161.13 194.76 161.73 194.16 163.13C193.56 164.53 194.16 165.43 195.16 166.63C195.96 164.73 196.96 163.13 197.86 161.33ZM209.96 178.13C208.06 178.13 206.66 177.93 204.96 178.13C204.56 178.13 204.16 178.73 203.96 179.13C203.56 180.53 203.16 182.23 202.76 183.83C201.56 189.83 200.06 195.73 199.26 201.73C198.86 203.93 198.66 206.03 199.06 208.03C199.46 209.53 201.76 209.73 203.16 208.83C204.16 208.23 205.46 206.23 205.86 204.73C207.06 200.63 208.26 196.53 209.06 192.43C210.16 187.73 210.16 182.83 209.96 178.13ZM343.66 161.33C343.46 160.83 342.66 160.03 342.26 160.03C341.66 160.03 340.76 160.63 340.56 161.33C339.36 163.93 340.96 167.83 343.86 168.83C344.26 167.03 344.26 163.13 343.66 161.33Z" fill="#000000" fill-opacity="1.000000" fill-rule="evenodd"/>
	<path id="&amp;lt;Path&amp;gt;" d="M271.46 287.03C268.36 287.53 265.26 289.13 262.66 290.83C220.96 316.33 178.76 318.13 136.06 295.73C132.76 293.93 129.26 292.23 125.46 291.33C123.16 290.63 120.56 291.53 117.46 292.03C115.36 292.43 116.06 293.43 117.46 294.63C146.92 316.03 179.23 324.27 214.36 319.33C237.96 316.03 259.36 306.13 278.76 289.43C276.36 288.03 273.76 286.83 271.46 287.03Z" fill="#000000" fill-opacity="1.000000" fill-rule="nonzero"/>
	<path id="&amp;lt;Path&amp;gt;" d="M121.26 87.13C124.36 86.63 127.46 84.93 129.96 83.33C143.46 75.03 157.16 69.23 170.76 66.13C169.86 66.83 168.66 67.73 167.76 68.73C165.36 70.83 163.26 72.93 160.86 75.33C160.66 75.53 160.46 76.03 160.16 76.23L160.46 76.53C161.13 76.07 161.83 75.57 162.56 75.03C162.56 75.53 162.76 75.53 163.26 75.33C163.73 75.07 164.19 74.83 164.66 74.63C163.96 75.53 162.76 76.23 162.26 77.63C163.46 77.63 163.96 76.73 164.66 76.23C164.66 76.73 164.46 77.23 164.16 77.43C162.26 80.73 160.66 84.03 158.76 87.33C158.26 88.33 158.06 89.23 157.86 90.13L157.86 91.13C158.06 91.13 158.56 90.83 158.76 90.83C159.26 90.63 159.76 90.13 160.16 89.73C162.26 87.13 164.66 84.23 166.76 81.63C167.49 80.7 168.19 79.77 168.86 78.83C168.66 79.83 168.16 80.73 167.96 81.93C167.46 83.33 167.26 84.53 166.76 85.93C166.76 86.13 167.06 86.43 167.06 86.83C167.26 86.83 167.76 86.63 167.76 86.63C168.46 85.93 169.16 85.23 169.66 84.53C172.66 80.53 175.06 76.23 177.66 72.03C178.06 71.03 178.56 70.83 179.56 70.63C180.46 70.63 183.06 67.73 184.66 64.43C184.96 64.23 184.96 64.03 185.16 63.73C190.36 63.33 195.56 63.03 200.76 63.33C200.06 66.13 199.56 69.63 199.36 72.93C198.86 79.83 199.76 93.03 199.76 93.03C199.76 93.03 202.66 91.33 203.06 84.53C203.56 77.43 204.26 86.43 204.26 86.43C204.26 86.43 206.86 104.53 207.36 112.33C207.86 120.13 208.26 122.43 210.36 119.63C210.36 119.63 212.56 124.33 214.16 119.43C216.06 114.73 215.86 102.23 215.86 102.23C215.86 102.23 217.26 108.33 218.66 108.13C219.86 107.83 220.56 89.93 218.66 85.23C218.66 85.23 221.06 82.13 220.56 79.53C220.56 79.53 227.66 72.03 230.66 68.23C239.16 70.83 247.66 74.33 256.36 78.83C257.76 79.53 259.26 80.23 260.86 80.93C277.39 91.6 291.06 106.7 301.86 126.23C301.86 126.23 308.46 140.43 317.66 140.43L316.26 135.93C302.86 103.83 279.96 78.13 249.06 64.03C244.56 61.83 240.16 60.23 235.36 58.53C236.16 56.73 236.86 55.03 236.86 55.03C236.86 55.03 241.56 50.53 241.56 44.43C241.56 38.33 241.06 35.23 241.06 35.23C241.06 35.23 241.56 33.83 241.26 32.83C241.06 31.93 242.46 32.13 242.46 32.43C242.46 32.63 243.46 31.43 243.46 30.23L243.46 27.73C243.46 27.73 244.56 25.83 244.56 24.13C244.56 22.53 246.06 22.03 245.26 19.93C244.56 17.83 247.66 20.13 249.56 20.13C251.46 20.13 253.76 18.53 253.76 18.53L254.06 20.33L251.86 23.43C251.86 23.43 254.06 25.33 256.36 21.33C258.76 17.33 261.56 12.83 259.46 7.43C260.16 6.73 262.56 2.73 255.16 1.23C246.96 -0.37 243.66 -0.57 240.36 1.53C236.86 3.43 235.66 2.43 235.16 2.93C234.46 3.43 233.06 4.53 233.06 4.53C233.06 4.53 231.86 5.33 231.16 6.43C230.46 7.63 228.36 7.43 226.46 9.73C224.56 12.13 221.46 14.43 221.46 14.43C221.46 14.43 212.76 16.33 209.66 22.23C206.66 28.13 205.46 30.53 205.26 31.03C204.96 31.23 201.46 42.33 201.46 43.93C201.46 44.93 200.76 48.63 200.26 51.93L195.06 51.93C196.46 49.33 197.66 46.53 198.66 43.53C200.26 37.83 200.76 32.43 196.96 27.23C193.16 22.03 189.66 17.03 185.86 11.93C184.46 10.03 183.06 8.33 181.16 6.93C177.36 3.83 172.96 5.03 170.76 9.33C170.06 10.73 168.86 11.93 167.76 13.03C167.06 13.73 166.36 14.23 165.16 15.43C166.36 15.43 166.76 15.43 167.06 15.23C170.76 14.03 173.16 15.43 173.16 19.43C173.16 22.53 171.96 25.33 171.26 28.43C170.76 30.53 169.86 32.43 169.36 34.53C168.16 41.13 168.86 47.53 171.26 53.63C171.53 54.37 171.76 55.07 171.96 55.73C150.76 59.73 131.46 69.23 113.76 84.73C116.36 86.43 118.96 87.53 121.26 87.13Z" fill="#000000" fill-opacity="1.000000" fill-rule="nonzero"/>
	<path id="&amp;lt;Compound Path&amp;gt;" d="M144.06 244.83L154.96 244.83L154.96 247.33L147.86 247.33L147.86 251.33L154.56 251.33L154.56 253.73L147.86 253.73L147.86 260.43L144.06 260.43L144.06 244.83Z" fill="#000000" fill-opacity="1.000000" fill-rule="nonzero"/>
	<path id="&amp;lt;Compound Path&amp;gt;" d="M169.76 244.83L169.76 260.43L165.96 260.43L165.96 244.83L169.76 244.83Z" fill="#000000" fill-opacity="1.000000" fill-rule="nonzero"/>
	<path id="&amp;lt;Compound Path&amp;gt;" d="M182.16 244.83L185.96 244.83L185.96 258.13L193.26 258.13L192.96 260.43L182.16 260.43L182.16 244.83Z" fill="#000000" fill-opacity="1.000000" fill-rule="nonzero"/>
	<path id="&amp;lt;Compound Path&amp;gt;" d="M216.96 254.63C216.96 252.03 216.96 248.93 217.06 247.13L216.96 247.13C216.26 250.13 215.06 255.43 213.66 260.43L210.26 260.43C209.16 255.73 207.96 250.13 207.26 247.13L207.16 247.13C207.26 248.93 207.36 252.23 207.36 254.93L207.36 260.43L203.86 260.43L203.86 244.83L209.56 244.83C210.66 249.13 211.66 253.53 212.16 255.83C212.56 253.73 213.96 249.03 215.06 244.83L220.56 244.83L220.56 260.43L216.96 260.43L216.96 254.63Z" fill="#000000" fill-opacity="1.000000" fill-rule="nonzero"/>
	<path id="&amp;lt;Compound Path&amp;gt;" d="M235.26 256.13C235.46 257.43 236.16 258.53 238.16 258.53C240.06 258.53 240.76 257.63 240.76 256.53C240.76 255.23 239.86 254.53 237.16 253.53C233.56 252.23 232.06 251.13 232.06 248.83C232.06 246.33 234.26 244.63 238.16 244.63C242.96 244.63 244.16 247.03 244.16 249.03L240.46 249.03C240.36 248.13 239.96 246.83 238.06 246.83C236.56 246.83 235.86 247.53 235.86 248.63C235.86 249.73 236.56 250.23 239.06 251.13C242.86 252.43 244.56 253.63 244.56 256.23C244.56 258.73 242.56 260.73 238.06 260.73C233.16 260.73 231.66 258.43 231.46 256.13L235.26 256.13Z" fill="#000000" fill-opacity="1.000000" fill-rule="nonzero"/>
</svg>
